<svg viewBox="0 0 65 65" xmlns:xlink="http://www.w3.org/1999/xlink" xmlns="http://www.w3.org/2000/svg"><defs><linearGradient id="prefix__b"><stop offset="0" stop-color="#1946ff"/><stop offset="1" stop-color="#3eddff"/></linearGradient><linearGradient id="prefix__a"><stop offset="0" stop-color="#6c00e8"/><stop offset="1" stop-color="#d05ed6"/></linearGradient><linearGradient xlink:href="#prefix__a" id="prefix__c" x1="40.558" y1="64.877" x2="103.163" y2="64.877" gradientUnits="userSpaceOnUse"/><linearGradient xlink:href="#prefix__a" id="prefix__d" gradientUnits="userSpaceOnUse" x1="40.558" y1="64.877" x2="103.163" y2="64.877"/><linearGradient xlink:href="#prefix__a" id="prefix__e" gradientUnits="userSpaceOnUse" x1="40.558" y1="64.877" x2="103.163" y2="64.877"/><linearGradient xlink:href="#prefix__b" id="prefix__f" x1="40.558" y1="64.877" x2="103.163" y2="64.877" gradientUnits="userSpaceOnUse"/><linearGradient xlink:href="#prefix__b" id="prefix__g" gradientUnits="userSpaceOnUse" x1="40.558" y1="64.877" x2="103.163" y2="64.877"/><linearGradient xlink:href="#prefix__b" id="prefix__h" gradientUnits="userSpaceOnUse" x1="40.558" y1="64.877" x2="103.163" y2="64.877"/></defs><g fill="none" stroke-width="5" stroke-linecap="round" stroke-linejoin="round"><g transform="rotate(-173.25 50.6 57.585)" stroke="url(#prefix__c)"><path d="M43.058 79.121a28.487 28.487 0 0123.544-28.055 28.487 28.487 0 0131.715 18.32" stroke="url(#prefix__d)"/><path d="M85.756 73.85l14.908-1.665-1.665-14.907" stroke="url(#prefix__e)"/></g><g transform="rotate(6.75 459.813 -281.398)" stroke="url(#prefix__f)"><path d="M43.058 79.121a28.487 28.487 0 0123.544-28.055 28.487 28.487 0 0131.715 18.32" stroke="url(#prefix__g)"/><path d="M85.756 73.85l14.908-1.665-1.665-14.907" stroke="url(#prefix__h)"/></g></g></svg>