<svg viewBox="0 0 257 344" xmlns="http://www.w3.org/2000/svg" overflow="hidden"><defs><linearGradient x1="351.462" y1="233.56" x2="669.496" y2="500.422" gradientUnits="userSpaceOnUse" spreadMethod="reflect" id="prefix__b"><stop offset="0" stop-color="#A964C8"/><stop offset=".35" stop-color="#A964C8"/><stop offset=".87" stop-color="#2D8AD5"/><stop offset="1" stop-color="#2D8AD5"/></linearGradient><linearGradient x1="351.462" y1="233.56" x2="669.496" y2="500.422" gradientUnits="userSpaceOnUse" spreadMethod="reflect" id="prefix__c"><stop offset="0" stop-color="#A964C8"/><stop offset=".35" stop-color="#A964C8"/><stop offset=".87" stop-color="#2D8AD5"/><stop offset="1" stop-color="#2D8AD5"/></linearGradient><clipPath id="prefix__a"><path d="M382 195h257v344H382z"/></clipPath></defs><g clip-path="url(#prefix__a)" transform="translate(-382 -195)" fill-rule="evenodd"><path d="M637.755 433.872c4.46 81.349-58.178 104.111-129.744 104.111-71.567 0-131.335-30.15-124.498-100.873-.404-11.876 6.077-22.977 15.121-27.219 15.186-7.123 46.119-6.955 108.85-6.894 62.73.061 101.68-.718 114.037 4.95 12.357 5.667 16.49 16.662 16.234 25.925z" fill="url(#prefix__b)"/><path d="M422 285c0-49.153 39.623-89 88.5-89s88.5 39.847 88.5 89-39.623 89-88.5 89-88.5-39.847-88.5-89z" fill="url(#prefix__c)"/></g></svg>